custom-analysis
version=1
nRows=18
nColumns=38
inDegrees=no

This file contains tibia displacement and acting force.

Units are S.I. units (seconds, meters, Newtons, ...)
Angles are in degrees.

endheader
time	APT	SIT	knee_angle	aACL_R_force	pACL_R_force	aPCL_R_force	pPCL_R_force	aMCL_R_force	aLCL_R_force	aPCL_L_force	pPCL_L_force	aMCL_L_force	aLCL_L_force	aACL_R_length	pACL_R_length	aPCL_R_length	pPCL_R_length	aMCL_R_length	aLCL_R_length	aPCL_L_length	pPCL_L_length	aMCL_L_length	aLCL_L_length	aACL_R_strain	pACL_R_strain	aPCL_R_strain	pPCL_R_strain	aMCL_R_strain	aLCL_R_strain	aPCL_L_strain	pPCL_L_strain	aMCL_L_strain	aLCL_L_strain	femur_lat_meniscii_force_r	femur_med_meniscii_force_r	femur_lat_tibia_force_r	femur_med_tibia_force_r
      0.03086502	      0.00197423	      0.02272269	      2.83834424	    -67.34383299	    111.48180274	      0.00000000	     61.15574552	      0.00000000	      0.00000000	      0.00000000	      0.00000000	    -56.50589183	      0.00000000	      0.03255142	      0.02549570	      0.02485185	      0.02489353	      0.05420063	      0.03908650	      0.01925056	      0.02453449	      0.07491682	      0.05236512	      0.02793961	      0.05969775	     -0.07203943	      0.01239797	     -0.26444018	     -0.26376633	     -0.28118992	     -0.00220380	      0.01670037	     -0.01365023	      0.00000000	      0.00000000	      0.00000000	      0.00000000
      0.03236727	      0.00167110	      0.02460225	      2.97345833	    -83.92724947	    137.12223797	      0.00000000	     67.65003186	      0.00000000	      0.00000000	      0.00000000	      0.00000000	    -56.95981895	      0.00000000	      0.03223487	      0.02575043	      0.02551822	      0.02498494	      0.05228929	      0.03702278	      0.01897605	      0.02449108	      0.07478769	      0.05213796	      0.01794323	      0.07028536	     -0.04715751	      0.01611544	     -0.29037903	     -0.30263861	     -0.29144001	     -0.00396914	      0.01494804	     -0.01792897	      0.00000000	      0.00000000	      0.00000000	      0.00000000
      0.03333333	      0.00141552	      0.02582787	      3.05970653	    -94.38435086	    153.84232302	      0.00000000	     73.58855730	      0.00000000	      0.00000000	      0.00000000	      0.00000000	    -56.58805737	      0.00000000	      0.03200756	      0.02592983	      0.02598760	      0.02504673	      0.05100031	      0.03563538	      0.01878513	      0.02446205	      0.07470609	      0.05198473	      0.01076498	      0.07774195	     -0.02963117	      0.01862875	     -0.30787183	     -0.32877174	     -0.29856904	     -0.00514996	      0.01384063	     -0.02081523	      0.00000000	      0.00000000	      0.00000000	      0.00000000
      0.03386953	      0.00125189	      0.02651248	      3.10716147	    -99.98867081	    163.21221743	      0.00000000	     77.30445147	      0.00000000	      0.00000000	      0.00000000	      0.00000000	    -56.14702873	      0.00000000	      0.03187277	      0.02603420	      0.02626225	      0.02508256	      0.05026445	      0.03484496	      0.01867461	      0.02444585	      0.07466151	      0.05189759	      0.00650845	      0.08207979	     -0.01937573	      0.02008571	     -0.31785830	     -0.34366003	     -0.30269587	     -0.00580889	      0.01323561	     -0.02245663	      0.00000000	      0.00000000	      0.00000000	      0.00000000
      0.03448092	      0.00104559	      0.02729600	      3.16080791	   -106.12958081	    173.97293545	      0.00000000	     81.77840667	      0.00000000	      0.00000000	      0.00000000	      0.00000000	    -55.43007531	      0.00000000	      0.03171118	      0.02615714	      0.02658781	      0.02512494	      0.04940734	      0.03392592	      0.01854490	      0.02442760	      0.07461146	      0.05179659	      0.00140561	      0.08718958	     -0.00721941	      0.02180928	     -0.32949013	     -0.36097112	     -0.30753898	     -0.00655096	      0.01255632	     -0.02435900	      0.00000000	      0.00000000	      0.00000000	      0.00000000
      0.03476095	      0.00094387	      0.02765568	      3.18519032	      0.00000000	    176.94488736	      0.00000000	     81.55561745	      0.00000000	      0.00000000	      0.00000000	      0.00000000	    -55.06832568	      0.00000000	      0.03163419	      0.02621474	      0.02674129	      0.02514485	      0.04900824	      0.03349858	      0.01848428	      0.02441943	      0.07458885	      0.05174980	     -0.00102562	      0.08958375	     -0.00148864	      0.02261882	     -0.33490639	     -0.36902055	     -0.30980277	     -0.00688329	      0.01224954	     -0.02524044	      0.00000000	      0.00000000	      0.00000000	      0.00000000
      0.03488346	      0.00089702	      0.02781314	      3.19575683	      0.00000000	    174.29042062	    201.60723587	     73.75968159	      0.00000000	      0.00000000	      0.00000000	      0.00000000	    -54.88672507	      0.00000000	      0.03159842	      0.02623881	      0.02680935	      0.02515297	      0.04883169	      0.03330987	      0.01845753	      0.02441590	      0.07457902	      0.05172922	     -0.00215501	      0.09058446	      0.00105300	      0.02294929	     -0.33730229	     -0.37257504	     -0.31080153	     -0.00702692	      0.01211618	     -0.02562799	      0.00000000	      0.00000000	      0.00000000	      0.00000000
      0.03500596	      0.00084858	      0.02797044	      3.20625059	      0.00000000	    173.08403544	    196.32789835	     52.58533084	      0.00000000	      0.00000000	      0.00000000	      0.00000000	    -54.53708645	      0.00000000	      0.03156080	      0.02626186	      0.02687636	      0.02515894	      0.04865359	      0.03311946	      0.01843067	      0.02441242	      0.07456926	      0.05170860	     -0.00334317	      0.09154222	      0.00355514	      0.02319207	     -0.33971931	     -0.37616166	     -0.31180458	     -0.00716828	      0.01198365	     -0.02601650	      0.00000000	      0.00000000	      0.00000000	      0.00000000
      0.03561849	      0.00058627	      0.02875363	      3.25785058	      0.00000000	    172.27766871	    183.19332460	    -16.11056689	      0.00000000	      0.00000000	      0.00000000	      0.00000000	    -53.16598448	      0.00000000	      0.03135121	      0.02636805	      0.02719282	      0.02515696	      0.04774270	      0.03214344	      0.01829468	      0.02439593	      0.07452136	      0.05160474	     -0.00996187	      0.09595617	      0.01537143	      0.02311135	     -0.35208105	     -0.39454587	     -0.31688243	     -0.00783898	      0.01133366	     -0.02797269	      0.00000000	      0.00000000	      0.00000000	      0.00000000
      0.03705183	     -0.00014010	      0.03056919	      3.37364662	      0.00000000	    187.34522227	    192.91740418	    -66.70590787	      0.00000000	      0.00000000	      0.00000000	      0.00000000	    -50.93749602	      0.00000000	      0.03077587	      0.02659999	      0.02790995	      0.02506206	      0.04551185	      0.02975087	      0.01796505	      0.02436177	      0.07441386	      0.05135674	     -0.02813032	      0.10559646	      0.04214879	      0.01925216	     -0.38235615	     -0.43961234	     -0.32919045	     -0.00922809	      0.00987467	     -0.03264406	      0.00000000	      0.00000000	      0.00000000	      0.00000000
      0.03848518	     -0.00101111	      0.03235676	      3.48276075	      0.00000000	    212.86345472	    222.13812052	    -72.14957976	      0.00000000	      0.00000000	      0.00000000	      0.00000000	    -48.74109344	      0.00000000	      0.03013158	      0.02684979	      0.02867467	      0.02494141	      0.04317396	      0.02725225	      0.01762080	      0.02433416	      0.07431179	      0.05110229	     -0.04847629	      0.11597876	      0.07070346	      0.01434510	     -0.41408371	     -0.48667648	     -0.34204474	     -0.01035097	      0.00848954	     -0.03743691	      0.00000000	      0.00000000	      0.00000000	      0.00000000
      0.03991852	     -0.00202474	      0.03410044	      3.58496467	      0.00000000	    246.64997383	    260.76885268	    -65.12894088	      0.00000000	      0.00000000	      0.00000000	      0.00000000	    -46.17102097	      0.00000000	      0.02944293	      0.02714099	      0.02950809	      0.02482954	      0.04075045	      0.02467889	      0.01726518	      0.02431555	      0.07421535	      0.05084267	     -0.07022311	      0.12808215	      0.10182302	      0.00979562	     -0.44697327	     -0.53514830	     -0.35532346	     -0.01110801	      0.00718079	     -0.04232714	      0.00000000	      0.00000000	      0.00000000	      0.00000000
      0.04135186	     -0.00317872	      0.03577569	      3.68041073	      0.00000000	    290.35229584	    308.16953129	    -49.19243825	      0.00000000	      0.00000000	      0.00000000	      0.00000000	    -43.98426765	      0.00000000	      0.02873234	      0.02749370	      0.03040840	      0.02473880	      0.03827018	      0.02207596	      0.01690173	      0.02430850	      0.07412489	      0.05057918	     -0.09266288	      0.14274211	      0.13544036	      0.00610531	     -0.48063318	     -0.58417708	     -0.36889469	     -0.01139472	      0.00595308	     -0.04729010	      0.00000000	      0.00000000	      0.00000000	      0.00000000
      0.04278520	     -0.00446538	      0.03735088	      3.76993027	      0.00000000	    346.07355663	    364.09312493	    -25.45153310	      0.00000000	      0.00000000	      0.00000000	      0.00000000	    -41.11057491	      0.00000000	      0.02803141	      0.02792962	      0.03136666	      0.02467944	      0.03578362	      0.01952536	      0.01653302	      0.02431391	      0.07403993	      0.05031266	     -0.11479749	      0.16086084	      0.17122152	      0.00369128	     -0.51437850	     -0.63222009	     -0.38266200	     -0.01117449	      0.00480014	     -0.05231043	      0.00000000	      0.00000000	      0.00000000	      0.00000000
      0.04462948	     -0.00628106	      0.03916496	      3.87964211	      0.00000000	    435.57833576	    436.04207731	     23.35407453	      0.00000000	      0.00000000	      0.00000000	      0.00000000	    -38.04808353	      0.00000000	      0.02722249	      0.02864842	      0.03265966	      0.02467333	      0.03271455	      0.01657034	      0.01605524	      0.02434090	      0.07393887	      0.04996717	     -0.14034250	      0.19073668	      0.21950182	      0.00344286	     -0.55602898	     -0.68788091	     -0.40050227	     -0.01007694	      0.00342856	     -0.05881795	      0.00000000	      0.00000000	      0.00000000	      0.00000000
      0.04601856	     -0.00771880	      0.04031864	      3.96207375	      0.00000000	    509.12986976	    481.42474847	     71.27735957	      0.00000000	      0.00000000	      0.00000000	      0.00000000	    -36.61181570	      0.00000000	      0.02675105	      0.02931478	      0.03364682	      0.02474120	      0.03065502	      0.01487457	      0.01569355	      0.02437467	      0.07386732	      0.04970545	     -0.15522997	      0.21843314	      0.25636179	      0.00620305	     -0.58397901	     -0.71982244	     -0.41400773	     -0.00870367	      0.00245767	     -0.06374771	      0.00000000	      0.00000000	      0.00000000	      0.00000000
      0.04740764	     -0.00914903	      0.04124824	      4.05060707	      0.00000000	    575.89031155	    510.77396331	    115.75639900	      0.00000000	      0.00000000	      0.00000000	      0.00000000	    -35.51737373	      0.00000000	      0.02644554	      0.03006353	      0.03459935	      0.02487600	      0.02896420	      0.01389190	      0.01533070	      0.02441875	      0.07379833	      0.04944258	     -0.16487762	      0.24955415	      0.29192914	      0.01168528	     -0.60692513	     -0.73833209	     -0.42755648	     -0.00691084	      0.00152135	     -0.06869916	      0.00000000	      0.00000000	      0.00000000	      0.00000000
      0.04911820	     -0.01077314	      0.04205952	      4.17981663	      0.00000000	    629.21680006	    514.19453427	    142.56254381	      0.00000000	      0.00000000	      0.00000000	      0.00000000	    -33.86335058	      0.00000000	      0.02631161	      0.03100872	      0.03562811	      0.02510022	      0.02753753	      0.01373446	      0.01488386	      0.02448728	      0.07371643	      0.04911798	     -0.16910694	      0.28883974	      0.33034276	      0.02080387	     -0.62628657	     -0.74129756	     -0.44424124	     -0.00412376	      0.00040989	     -0.07481336	      0.00000000	      0.00000000	      0.00000000	      0.00000000
